# 3ds Max Wavefront OBJ Exporter v0.97b - (c)2007 guruware
# 创建的文件:08.06.2023 21:00:53

mtllib 斜型石堆.mtl

#
# object Box001
#

v  -28.6675 -0.0395 54.7249
v  -35.4433 -0.0203 47.9472
v  -40.9581 -4.2154 10.0611
v  -11.7497 -4.1988 6.0156
v  -15.1568 -0.0367 54.7246
v  -35.4592 33.7969 33.8638
v  -14.5989 33.8138 54.7268
v  -12.2380 33.7935 54.7245
v  -9.6726 37.9316 8.0514
v  -40.9166 37.9801 12.0138
v  -35.5532 7.2698 55.2863
v  -28.6811 0.3851 55.3087
v  -15.1383 0.4096 55.2362
v  -13.6367 16.3198 63.5112
v  -37.6854 9.6562 55.1868
v  8.8186 9.4695 54.7321
v  8.8718 0.3507 45.6543
v  14.3638 -3.8244 2.4193
v  27.5331 16.4640 3.6927
v  10.5319 12.4297 54.7347
v  8.3473 3.9672 -43.4785
v  4.7995 0.4195 -43.4785
v  -7.0765 0.4195 -43.4785
v  -5.2360 16.3354 -43.4785
v  14.5883 10.4770 -43.4785
v  -35.8384 2.9156 -43.4785
v  -35.9887 0.3894 -29.7745
v  -41.5230 -3.8095 9.3106
v  -49.5089 16.4973 10.2469
v  -42.3385 17.9370 -27.8706
v  -35.4959 13.3758 54.8000
v  -15.4561 33.4155 54.8000
v  -35.4959 33.4155 34.7602
v  8.3045 16.8855 54.8000
v  8.3045 33.4155 38.2699
v  -8.2256 33.4155 54.8000
v  8.3045 18.3793 -43.1360
v  -6.7318 33.4155 -43.1360
v  8.3045 33.4155 -28.0997
v  -35.6948 3.5761 -43.1743
v  -41.8628 17.9605 -28.7898
v  -24.6344 17.9606 -43.1743
v  -35.4278 0.1213 -30.8048
v  -35.4278 2.7402 -43.0679
v  -23.1647 0.1213 -43.0679
v  -29.5256 0.3425 54.8000
v  -35.4959 6.3128 54.8000
v  -35.4959 0.3425 48.8296
v  -0.0056 0.3425 54.8000
v  8.3045 0.3425 46.4899
v  8.3045 8.6525 54.8000
v  8.3045 2.9888 -43.1360
v  8.3045 0.3425 -40.4897
v  5.6582 0.3425 -43.1360
v  -40.9414 -4.2147 9.2142
v  -35.4428 -0.0291 -29.6301
v  -22.0134 -0.0431 -43.0612
v  -7.9997 -0.0258 -43.0597
v  -11.6878 -4.2013 5.1652
v  13.7550 37.9832 4.2450
v  8.2566 33.7923 -27.2138
v  -7.0324 33.8451 -42.5123
v  -8.7920 37.9399 7.1051
v  14.4195 -3.8552 1.6029
v  8.8967 0.3349 -39.6615
v  8.8159 3.8013 -43.0614
v  15.2450 10.3733 -43.0765
v  27.4885 16.4639 2.8604
v  -41.5254 -3.8078 10.1367
v  -36.0222 0.3699 47.9810
v  -35.9779 7.1319 54.7208
v  -38.3681 9.5105 54.7572
v  -49.4573 16.4195 11.0707
v  -14.3312 0.4146 55.2140
v  -0.8489 0.3840 55.3117
v  8.3316 9.5782 55.2882
v  9.9703 12.5023 55.1632
v  -12.7849 16.3970 63.5449
v  -10.9008 -4.2045 5.8987
v  13.7573 -4.2140 2.4856
v  8.2491 -0.0263 45.6107
v  -0.8635 -0.0408 54.7250
v  -14.3160 -0.0265 54.7238
v  -11.3983 33.7808 54.7234
v  -9.0829 33.8114 54.7264
v  8.2561 33.7991 37.3854
v  13.7367 37.9771 5.0917
v  -8.8288 37.9444 7.9464
v  -7.8750 33.8578 -42.3793
v  -35.4548 33.8081 -12.4377
v  -40.8976 37.9823 11.1678
v  -9.6321 37.9324 7.2128
v  -7.9210 0.4195 -43.4785
v  -22.1419 0.4195 -43.4785
v  -23.7870 17.9007 -43.4785
v  -6.0621 16.4952 -43.4785
v  -7.1586 -0.0380 -43.0607
v  4.8000 -0.0382 -43.0608
v  8.2501 -0.0180 -39.6089
v  13.7713 -4.2135 1.6392
v  -10.8378 -4.2015 5.0475
v  -13.5351 17.1647 63.4998
v  -12.2399 33.3265 55.1763
v  -14.6296 33.4023 55.3679
v  -35.5810 12.4454 55.3650
v  -37.2946 10.5131 55.3056
v  27.5361 17.2275 3.7391
v  14.3379 37.5677 4.9742
v  8.8702 33.4073 37.4333
v  8.8396 16.0788 54.7370
v  10.5440 13.1700 54.7466
v  -5.2084 17.2020 -43.4785
v  -6.8721 32.6202 -43.4785
v  8.3473 17.4008 -43.4785
v  13.9719 11.5339 -43.4785
v  -49.4423 17.2601 10.2985
v  -41.5548 37.5717 11.2207
v  -36.0586 33.4098 -12.4471
v  -42.4574 18.6969 -27.2194
v  -42.0252 18.6641 -28.0711
v  -35.6452 33.4312 -13.2323
v  -8.1212 33.4621 -43.1508
v  -23.9645 18.6414 -43.1164
v  15.2529 11.0896 -43.1042
v  8.8529 17.5914 -43.0656
v  8.8981 33.4239 -27.2735
v  14.3572 37.5727 4.1871
v  27.5317 17.1868 2.9159
v  -38.3681 10.2826 54.7948
v  -36.0251 12.5819 54.7250
v  -36.0390 33.3998 33.9125
v  -41.4906 37.5391 12.0413
v  -49.4520 17.1991 11.0955
v  9.8472 13.2665 55.2284
v  8.3505 15.9740 55.3404
v  -9.0590 33.3877 55.3426
v  -11.4889 33.3320 55.1806
v  -12.7256 17.2031 63.5025
v  -22.9971 18.6796 -43.4785
v  -7.7439 32.8803 -43.4785
v  -6.0668 17.3372 -43.4785
# 141 vertices

vn -0.1210 -0.9339 0.3364
vn -0.3531 -0.9119 0.2090
vn -0.3089 -0.9486 0.0692
vn 0.0031 -0.9990 0.0442
vn 0.0057 -0.9206 0.3904
vn -0.3870 0.8766 0.2861
vn -0.1235 0.9428 0.3096
vn 0.0111 0.9025 0.4306
vn -0.0012 0.9990 0.0447
vn -0.3275 0.9366 0.1249
vn -0.1828 -0.0820 0.9797
vn -0.1392 -0.4746 0.8691
vn 0.0151 -0.6184 0.7857
vn -0.1534 -0.1983 0.9681
vn -0.4457 -0.1069 0.8888
vn 0.7222 -0.4142 0.5539
vn 0.7978 -0.5486 0.2500
vn 0.7021 -0.7031 0.1130
vn 0.9544 -0.2759 0.1144
vn 0.8048 -0.2383 0.5437
vn 0.2567 -0.1983 -0.9459
vn 0.1031 -0.3825 -0.9182
vn 0.0000 -0.3616 -0.9323
vn 0.0000 0.0000 -1.0000
vn 0.3625 -0.0339 -0.9314
vn -0.6974 0.1876 -0.6917
vn -0.5479 -0.8227 -0.1518
vn -0.7861 -0.6123 -0.0844
vn -0.9887 -0.1328 -0.0698
vn -0.9472 0.0162 -0.3201
vn -0.5072 -0.6933 -0.5120
vn -0.6303 0.4911 0.6012
vn -0.4532 0.6935 0.5600
vn -0.5690 0.6926 0.4433
vn 0.6212 0.4844 0.6160
vn 0.5573 0.6984 0.4491
vn 0.4458 0.6872 0.5736
vn 0.5551 0.4327 -0.7104
vn -0.0507 0.6468 -0.7610
vn 0.5387 0.7094 -0.4545
vn -0.5749 0.4420 -0.6886
vn -0.7499 0.3241 -0.5767
vn -0.4380 0.4156 -0.7971
vn -0.4034 -0.9020 -0.1541
vn -0.2044 -0.9573 -0.2044
vn -0.1502 -0.8584 -0.4905
vn -0.4332 -0.6832 0.5879
vn -0.6302 -0.4575 0.6273
vn -0.5727 -0.6958 0.4335
vn 0.4343 -0.6835 0.5867
vn 0.5520 -0.7050 0.4453
vn 0.6165 -0.4645 0.6358
vn 0.5749 -0.4247 -0.6994
vn 0.5348 -0.7156 -0.4494
vn 0.3910 -0.6369 -0.6644
vn -0.3147 -0.9461 -0.0772
vn -0.3537 -0.9252 -0.1376
vn -0.0394 -0.9110 -0.4105
vn -0.0062 -0.8994 -0.4371
vn -0.0058 -0.9991 -0.0422
vn 0.2981 0.9511 -0.0805
vn 0.3301 0.9146 -0.2337
vn 0.1068 0.9252 -0.3640
vn -0.0110 0.9990 -0.0443
vn 0.6853 -0.7266 -0.0480
vn 0.7860 -0.5602 -0.2615
vn 0.5877 -0.4675 -0.6603
vn 0.7766 -0.3578 -0.5186
vn 0.9487 -0.2866 -0.1338
vn -0.7827 -0.6159 0.0900
vn -0.8076 -0.5327 0.2532
vn -0.6413 -0.5135 0.5701
vn -0.7796 -0.3702 0.5052
vn -0.9749 -0.1809 0.1298
vn 0.0098 -0.6135 0.7896
vn 0.1389 -0.4754 0.8687
vn 0.3175 -0.1771 0.9316
vn 0.4928 -0.1113 0.8630
vn 0.1413 -0.1954 0.9705
vn 0.0022 -0.9992 0.0411
vn 0.2935 -0.9536 0.0667
vn 0.3266 -0.9238 0.2000
vn 0.1209 -0.9341 0.3358
vn 0.0054 -0.9172 0.3983
vn 0.0006 0.9075 0.4200
vn 0.1185 0.9393 0.3221
vn 0.3482 0.9083 0.2317
vn 0.3136 0.9447 0.0960
vn -0.0031 0.9991 0.0416
vn -0.1476 0.9517 -0.2692
vn -0.3867 0.8849 -0.2595
vn -0.2928 0.9490 -0.1168
vn -0.0088 0.9991 -0.0408
vn 0.0000 -0.3685 -0.9296
vn -0.0329 -0.3771 -0.9256
vn -0.9521 0.1710 -0.2533
vn -0.7385 -0.6525 -0.1696
vn -0.1617 0.1533 -0.9749
vn -0.0069 -0.8967 -0.4427
vn 0.1092 -0.9007 -0.4204
vn 0.3099 -0.9290 -0.2023
vn 0.2528 -0.9654 -0.0643
vn -0.0067 -0.9989 -0.0454
vn -0.1945 0.2600 0.9458
vn 0.0364 0.5821 0.8123
vn -0.1099 0.4822 0.8692
vn -0.2353 0.1532 0.9598
vn -0.4115 0.2032 0.8885
vn 0.9498 0.2743 0.1502
vn 0.7185 0.6868 0.1102
vn 0.7830 0.5549 0.2812
vn 0.7249 0.4302 0.5380
vn 0.7973 0.1925 0.5721
vn 0.1409 0.2046 -0.9686
vn 0.2404 0.1927 -0.9513
vn 0.2029 0.1788 -0.9627
vn -0.9697 0.2305 -0.0810
vn -0.7699 0.6319 -0.0893
vn -0.6439 0.7099 -0.2855
vn -0.8880 0.3564 -0.2906
vn -0.6833 0.5242 -0.5082
vn -0.5297 0.7679 -0.3603
vn -0.0447 0.7231 -0.6892
vn -0.4403 0.4877 -0.7538
vn 0.7153 0.2506 -0.6524
vn 0.5682 0.4723 -0.6739
vn 0.7644 0.5753 -0.2911
vn 0.7100 0.6978 -0.0947
vn 0.9546 0.2597 -0.1461
vn -0.7537 0.2720 0.5983
vn -0.6332 0.5409 0.5536
vn -0.7524 0.5680 0.3336
vn -0.7839 0.5902 0.1927
vn -0.9739 0.1831 0.1339
vn 0.4782 0.1195 0.8701
vn 0.3345 0.1960 0.9218
vn 0.1116 0.4708 0.8751
vn -0.0375 0.5972 0.8012
vn 0.1758 0.2529 0.9514
vn -0.1771 0.1875 -0.9662
vn -0.0200 0.3184 -0.9478
# 141 vertex normals

vt 0.2406 0.0423 0.0000
vt 0.2605 0.0723 0.0000
vt 0.2523 0.2170 0.0000
vt 0.1413 0.2097 0.0000
vt 0.1908 0.0322 0.0000
vt 0.0370 0.5047 0.0000
vt 0.1149 0.4165 0.0000
vt 0.1243 0.4158 0.0000
vt 0.1484 0.6018 0.0000
vt 0.0229 0.5950 0.0000
vt 0.5852 0.0570 0.0000
vt 0.6105 0.0234 0.0000
vt 0.6609 0.0232 0.0000
vt 0.6661 0.1016 0.0000
vt 0.5851 0.0685 0.0000
vt 0.2784 0.1003 0.0000
vt 0.3049 0.0233 0.0000
vt 0.4278 0.0226 0.0000
vt 0.4249 0.1607 0.0000
vt 0.2784 0.1256 0.0000
vt 0.6792 0.3898 0.0000
vt 0.6980 0.4004 0.0000
vt 0.7081 0.4355 0.0000
vt 0.6594 0.4435 0.0000
vt 0.6600 0.3799 0.0000
vt 0.3081 0.9800 0.0000
vt 0.2993 0.5698 0.0000
vt 0.3645 0.8196 0.0000
vt 0.3225 0.8110 0.0000
vt 0.3291 0.7346 0.0000
vt 0.3012 0.9002 0.0000
vt 0.0286 0.9520 0.0000
vt 0.0392 0.8180 0.0000
vt 0.1027 0.8758 0.0000
vt 0.7653 0.0330 0.0000
vt 0.7785 0.0200 0.0000
vt 0.7832 0.0380 0.0000
vt 0.3861 0.6733 0.0000
vt 0.3943 0.5693 0.0000
vt 0.4487 0.6142 0.0000
vt 0.2751 0.5559 0.0000
vt 0.6086 0.2691 0.0000
vt 0.5791 0.2016 0.0000
vt 0.6344 0.2609 0.0000
vt 0.6124 0.3238 0.0000
vt 0.6163 0.3227 0.0000
vt 0.6153 0.3266 0.0000
vt 0.6079 0.5216 0.0000
vt 0.6161 0.5146 0.0000
vt 0.6181 0.5252 0.0000
vt 0.7301 0.3239 0.0000
vt 0.7366 0.3311 0.0000
vt 0.7272 0.3331 0.0000
vt 0.2516 0.2201 0.0000
vt 0.2017 0.3603 0.0000
vt 0.1419 0.3996 0.0000
vt 0.0901 0.3889 0.0000
vt 0.1404 0.2128 0.0000
vt 0.2427 0.6100 0.0000
vt 0.2299 0.7370 0.0000
vt 0.1736 0.8014 0.0000
vt 0.1522 0.6053 0.0000
vt 0.4302 0.0226 0.0000
vt 0.5533 0.0230 0.0000
vt 0.5633 0.0514 0.0000
vt 0.5632 0.1085 0.0000
vt 0.4273 0.1606 0.0000
vt 0.3641 0.8212 0.0000
vt 0.3399 0.8935 0.0000
vt 0.3244 0.9043 0.0000
vt 0.3183 0.9014 0.0000
vt 0.3223 0.8126 0.0000
vt 0.6639 0.0232 0.0000
vt 0.7141 0.0234 0.0000
vt 0.7472 0.0686 0.0000
vt 0.7475 0.0827 0.0000
vt 0.6690 0.1020 0.0000
vt 0.1381 0.2095 0.0000
vt 0.0443 0.2034 0.0000
vt 0.0975 0.0479 0.0000
vt 0.1381 0.0213 0.0000
vt 0.1877 0.0316 0.0000
vt 0.1276 0.4155 0.0000
vt 0.1369 0.4148 0.0000
vt 0.2113 0.4786 0.0000
vt 0.2424 0.6066 0.0000
vt 0.1518 0.6020 0.0000
vt 0.1702 0.8011 0.0000
vt 0.0518 0.6919 0.0000
vt 0.0232 0.5983 0.0000
vt 0.1488 0.6051 0.0000
vt 0.7088 0.4380 0.0000
vt 0.6827 0.3227 0.0000
vt 0.7076 0.3581 0.0000
vt 0.6805 0.3267 0.0000
vt 0.6705 0.4998 0.0000
vt 0.6596 0.4461 0.0000
vt 0.0870 0.3882 0.0000
vt 0.0428 0.3792 0.0000
vt 0.0326 0.3639 0.0000
vt 0.0436 0.2065 0.0000
vt 0.1372 0.2126 0.0000
vt 0.6664 0.1056 0.0000
vt 0.6715 0.1854 0.0000
vt 0.6629 0.1853 0.0000
vt 0.5859 0.0824 0.0000
vt 0.5859 0.0730 0.0000
vt 0.4248 0.1659 0.0000
vt 0.4219 0.3044 0.0000
vt 0.3289 0.3034 0.0000
vt 0.2783 0.1573 0.0000
vt 0.2784 0.1323 0.0000
vt 0.6568 0.4442 0.0000
vt 0.6126 0.4621 0.0000
vt 0.6448 0.4042 0.0000
vt 0.6574 0.3826 0.0000
vt 0.3210 0.8108 0.0000
vt 0.2787 0.8062 0.0000
vt 0.2901 0.7584 0.0000
vt 0.3274 0.7357 0.0000
vt 0.5632 0.1141 0.0000
vt 0.5632 0.1700 0.0000
vt 0.5171 0.3043 0.0000
vt 0.4242 0.3049 0.0000
vt 0.4272 0.1663 0.0000
vt 0.3168 0.9012 0.0000
vt 0.3103 0.9012 0.0000
vt 0.2765 0.8534 0.0000
vt 0.2785 0.8078 0.0000
vt 0.3208 0.8124 0.0000
vt 0.7480 0.0866 0.0000
vt 0.7480 0.0997 0.0000
vt 0.6836 0.1853 0.0000
vt 0.6748 0.1854 0.0000
vt 0.6694 0.1058 0.0000
vt 0.6675 0.4981 0.0000
vt 0.6126 0.4649 0.0000
vt 0.6571 0.4468 0.0000
vt 0.6250 0.3431 0.0000
vt 0.6079 0.3475 0.0000
vt 0.6310 0.5327 0.0000
vt 0.6164 0.5445 0.0000
vt 0.6081 0.2721 0.0000
vt 0.6080 0.2704 0.0000
vt 0.7295 0.3268 0.0000
vt 0.7281 0.3256 0.0000
vt 0.0200 0.9415 0.0000
vt 0.0201 0.9403 0.0000
vt 0.8083 0.0627 0.0000
vt 0.7738 0.0800 0.0000
vt 0.3010 0.9002 0.0000
vt 0.3822 0.6735 0.0000
vt 0.3821 0.6715 0.0000
vt 0.6619 0.1882 0.0000
vt 0.6591 0.1863 0.0000
vt 0.1019 0.8766 0.0000
vt 0.1018 0.8748 0.0000
vt 0.3251 0.3052 0.0000
vt 0.3229 0.2964 0.0000
vt 0.8107 0.0635 0.0000
vt 0.7845 0.0774 0.0000
vt 0.6108 0.4665 0.0000
vt 0.6081 0.4661 0.0000
vt 0.6079 0.4634 0.0000
vt 0.6099 0.4619 0.0000
vt 0.4485 0.6151 0.0000
vt 0.4484 0.6130 0.0000
vt 0.4870 0.3227 0.0000
vt 0.5945 0.5559 0.0000
vt 0.6352 0.2632 0.0000
vt 0.6351 0.2616 0.0000
vt 0.5819 0.0601 0.0000
vt 0.5791 0.0545 0.0000
vt 0.6254 0.3401 0.0000
vt 0.6139 0.3427 0.0000
vt 0.0794 0.1042 0.0000
vt 0.0200 0.0476 0.0000
vt 0.6344 0.5389 0.0000
vt 0.6207 0.5481 0.0000
vt 0.5490 0.0250 0.0000
vt 0.5456 0.0218 0.0000
vt 0.7241 0.3227 0.0000
vt 0.7312 0.3232 0.0000
vt 0.2549 0.2172 0.0000
vt 0.2543 0.2203 0.0000
vt 0.0409 0.2061 0.0000
vt 0.0416 0.2031 0.0000
vt 0.4234 0.3070 0.0000
vt 0.4208 0.3060 0.0000
vt 0.0201 0.5984 0.0000
vt 0.0200 0.5951 0.0000
vt 0.1882 0.0291 0.0000
vt 0.1912 0.0297 0.0000
vt 0.6752 0.1881 0.0000
vt 0.6716 0.1882 0.0000
vt 0.7100 0.4352 0.0000
vt 0.7107 0.4377 0.0000
vt 0.7508 0.0815 0.0000
vt 0.7519 0.0852 0.0000
vt 0.3177 0.9030 0.0000
vt 0.3159 0.9035 0.0000
vt 0.6574 0.3783 0.0000
vt 0.6595 0.3775 0.0000
vt 0.3277 0.7338 0.0000
vt 0.3292 0.7325 0.0000
vt 0.3412 0.8939 0.0000
vt 0.3654 0.8216 0.0000
vt 0.6779 0.3249 0.0000
vt 0.7037 0.4385 0.0000
vt 0.5523 0.0205 0.0000
vt 0.4294 0.0200 0.0000
vt 0.7154 0.0200 0.0000
vt 0.6649 0.0201 0.0000
vt 0.6614 0.1867 0.0000
vt 0.6701 0.1863 0.0000
vt 0.3238 0.3084 0.0000
vt 0.4159 0.3093 0.0000
vt 0.2888 0.7580 0.0000
vt 0.2773 0.8056 0.0000
vt 0.2771 0.0992 0.0000
vt 0.2775 0.1234 0.0000
vt 0.3098 0.9027 0.0000
vt 0.3150 0.9028 0.0000
vt 0.6794 0.3883 0.0000
vt 0.6599 0.3780 0.0000
vt 0.5841 0.0870 0.0000
vt 0.6591 0.1855 0.0000
vt 0.1111 0.4161 0.0000
vt 0.0363 0.5009 0.0000
vt 0.2758 0.8553 0.0000
vt 0.3084 0.9013 0.0000
vt 0.2751 0.1599 0.0000
vt 0.3251 0.3043 0.0000
vt 0.2115 0.4747 0.0000
vt 0.1405 0.4139 0.0000
vt 0.6875 0.1856 0.0000
vt 0.7493 0.1043 0.0000
vt 0.6417 0.4051 0.0000
vt 0.6099 0.4623 0.0000
vt 0.1754 0.8041 0.0000
vt 0.2306 0.7408 0.0000
vt 0.5202 0.3008 0.0000
vt 0.5643 0.1678 0.0000
vt 0.3051 0.8963 0.0000
vt 0.3333 0.7410 0.0000
vt 0.0511 0.6954 0.0000
vt 0.1692 0.8046 0.0000
vt 0.6110 0.4667 0.0000
vt 0.6683 0.5012 0.0000
vt 0.2790 0.5988 0.0000
vt 0.2952 0.9677 0.0000
vt 0.7079 0.3562 0.0000
vt 0.6860 0.3240 0.0000
vt 0.1462 0.4005 0.0000
vt 0.2008 0.3646 0.0000
vt 0.6040 0.0245 0.0000
vt 0.5795 0.0564 0.0000
vt 0.3261 0.9050 0.0000
vt 0.3399 0.8954 0.0000
vt 0.2617 0.0689 0.0000
vt 0.2441 0.0424 0.0000
vt 0.1348 0.0200 0.0000
vt 0.0978 0.0443 0.0000
vt 0.3015 0.0262 0.0000
vt 0.2765 0.1021 0.0000
vt 0.7517 0.0681 0.0000
vt 0.7186 0.0245 0.0000
vt 0.5657 0.0550 0.0000
vt 0.5580 0.0268 0.0000
vt 0.0314 0.3673 0.0000
vt 0.0393 0.3790 0.0000
vt 0.6975 0.3964 0.0000
vt 0.6835 0.3885 0.0000
vt 0.3687 0.8176 0.0000
vt 0.3039 0.5693 0.0000
vt 0.4274 0.0208 0.0000
vt 0.3047 0.0214 0.0000
vt 0.4275 0.3091 0.0000
vt 0.5206 0.3083 0.0000
vt 0.2770 0.8078 0.0000
vt 0.2751 0.8534 0.0000
vt 0.6609 0.0228 0.0000
vt 0.6106 0.0230 0.0000
vt 0.6761 0.1864 0.0000
vt 0.6848 0.1868 0.0000
vt 0.6999 0.3998 0.0000
vt 0.2790 0.1373 0.0000
vt 0.2782 0.1594 0.0000
vt 0.3184 0.9031 0.0000
vt 0.3242 0.9057 0.0000
vt 0.6573 0.3783 0.0000
vt 0.6434 0.4027 0.0000
vt 0.3274 0.7338 0.0000
vt 0.2900 0.7567 0.0000
vt 0.6776 0.4958 0.0000
vt 0.6840 0.3324 0.0000
# 296 texture coords

o Box001
g Box001
usemtl wire_006135113
s 1
f 1/1/1 2/2/2 3/3/3 4/4/4 5/5/5 
f 6/6/6 7/7/7 8/8/8 9/9/9 10/10/10 
f 11/11/11 12/12/12 13/13/13 14/14/14 15/15/15 
f 16/16/16 17/17/17 18/18/18 19/19/19 20/20/20 
f 21/21/21 22/22/22 23/23/23 24/24/24 25/25/25 
f 26/26/26 27/27/27 28/28/28 29/29/29 30/30/30 26/31/31 
f 31/32/32 32/33/33 33/34/34 
f 34/35/35 35/36/36 36/37/37 
f 37/38/38 38/39/39 39/40/40 
f 40/41/41 41/41/42 42/41/43 
f 43/42/44 44/43/45 45/44/46 
f 46/45/47 47/46/48 48/47/49 
f 49/48/50 50/49/51 51/50/52 
f 52/51/53 53/52/54 54/53/55 
f 55/54/56 56/55/57 57/56/58 58/57/59 59/58/60 
f 60/59/61 61/60/62 62/61/63 63/62/64 
f 64/63/65 65/64/66 66/65/67 67/66/68 68/67/69 
f 69/68/70 70/69/71 71/70/72 72/71/73 73/72/74 
f 74/73/75 75/74/76 76/75/77 77/76/78 78/77/79 
f 79/78/80 80/79/81 81/80/82 82/81/83 83/82/84 
f 84/83/85 85/84/86 86/85/87 87/86/88 88/87/89 
f 89/88/90 90/89/91 91/90/92 92/91/93 
f 93/92/94 94/93/95 26/94/96 26/95/97 95/96/98 96/97/24 
f 97/98/99 98/99/100 99/100/101 100/101/102 101/102/103 
f 102/103/104 103/104/105 104/105/106 105/106/107 106/107/108 
f 107/108/109 108/109/110 109/110/111 110/111/112 111/112/113 
f 112/113/24 113/114/114 114/115/115 115/116/116 
f 116/117/117 117/118/118 118/119/119 119/120/120 
f 120/41/121 121/41/122 122/41/123 123/41/124 
f 124/121/125 125/122/126 126/123/127 127/124/128 128/125/129 
f 129/126/130 130/127/131 131/128/132 132/129/133 133/130/134 
f 134/131/135 135/132/136 136/133/137 137/134/138 138/135/139 
f 139/136/140 140/137/141 141/138/24 
f 46/45/47 1/139/1 12/140/12 
f 49/48/50 75/141/76 82/142/83 
f 43/42/44 56/143/57 27/144/27 
f 52/51/53 21/145/21 66/146/67 
f 31/32/32 130/147/131 105/148/107 
f 34/35/35 135/149/136 110/150/112 
s 2
f 26/31/31 40/151/41 26/31/97 
s 1
f 37/38/38 125/152/126 114/153/115 
f 104/105/106 7/154/7 32/155/33 
f 33/34/34 6/156/6 131/157/132 
f 109/110/111 86/158/87 35/159/36 
f 36/37/37 85/160/86 136/161/137 
f 113/114/114 140/137/141 122/162/123 89/163/90 62/164/63 38/165/39 
f 39/40/40 61/166/62 126/167/127 
f 121/41/122 118/168/119 90/169/91 
s 2
f 26/26/26 26/31/96 44/151/45 
s 1
f 45/44/46 94/170/95 57/171/58 
f 11/11/11 71/172/72 47/173/48 
f 48/47/49 70/174/71 2/175/2 
f 81/80/82 17/176/17 50/177/51 
f 51/50/52 16/178/16 76/179/77 
f 65/64/66 99/180/101 53/181/54 
f 54/53/55 98/182/100 22/183/22 
f 55/54/56 3/3/3 69/184/70 28/185/28 
f 80/79/81 100/101/102 64/186/65 18/187/18 
f 108/109/110 127/124/128 60/188/61 87/189/88 
f 10/10/10 91/90/92 117/190/118 132/191/133 
f 5/5/5 83/82/84 74/192/75 13/193/13 
f 103/104/105 137/134/138 84/194/85 8/195/8 
f 59/58/60 101/102/103 79/78/80 4/4/4 
f 92/91/93 9/9/9 88/87/89 63/62/64 
f 93/92/94 23/23/23 97/196/99 58/197/59 
f 134/131/135 77/76/78 20/198/20 111/199/113 
f 129/126/130 72/71/73 15/200/15 106/201/108 
f 25/25/25 115/116/116 124/202/125 67/203/68 
f 30/30/30 119/120/120 120/204/121 41/205/42 
f 42/41/43 123/41/124 139/41/140 95/41/98 
f 68/67/69 128/125/129 107/108/109 19/19/19 
f 73/72/74 133/130/134 116/117/117 29/29/29 
f 78/77/79 138/135/139 102/103/104 14/14/14 
f 112/113/24 24/24/24 96/97/24 141/138/24 
f 2/206/2 70/69/71 69/68/70 3/207/3 
f 57/208/58 94/93/95 93/92/94 58/209/59 
f 99/210/101 65/64/66 64/63/65 100/211/102 
f 82/212/83 75/74/76 74/73/75 83/213/84 
f 7/214/7 104/105/106 103/104/105 8/215/8 
f 86/216/87 109/110/111 108/109/110 87/217/88 
f 90/218/91 118/119/119 117/118/118 91/219/92 
f 76/220/77 16/16/16 20/20/20 77/221/78 
f 105/222/107 130/127/131 129/126/130 106/223/108 
f 66/224/67 21/21/21 25/25/25 67/225/68 
s 2
f 26/31/96 26/26/26 26/31/31 26/31/97 
s 1
f 31/226/32 105/106/107 104/105/106 32/227/33 
f 32/228/33 7/7/7 6/6/6 33/229/34 
f 33/230/34 131/128/132 130/127/131 31/231/32 
f 34/232/35 110/111/112 109/110/111 35/233/36 
f 35/234/36 86/85/87 85/84/86 36/235/37 
f 36/236/37 136/133/137 135/132/136 34/237/35 
f 37/238/38 114/115/115 113/114/114 38/239/39 
f 38/240/39 62/61/63 61/60/62 39/241/40 
f 39/242/40 126/123/127 125/122/126 37/243/38 
f 40/244/41 26/31/31 30/30/30 41/245/42 
f 121/246/122 90/89/91 89/88/90 122/247/123 
f 122/248/123 140/137/141 139/136/140 123/249/124 
f 43/250/44 27/27/27 26/26/26 44/251/45 
f 44/252/45 26/94/96 94/93/95 45/253/46 
f 45/254/46 57/56/58 56/55/57 43/255/44 
f 46/256/47 12/12/12 11/11/11 47/257/48 
f 47/258/48 71/70/72 70/69/71 48/259/49 
f 48/260/49 2/2/2 1/1/1 46/261/47 
f 49/262/50 82/81/83 81/80/82 50/263/51 
f 50/264/51 17/17/17 16/16/16 51/265/52 
f 51/266/52 76/75/77 75/74/76 49/267/50 
f 52/268/53 66/65/67 65/64/66 53/269/54 
f 53/270/54 99/100/101 98/99/100 54/271/55 
f 54/272/55 22/22/22 21/21/21 52/273/53 
f 55/274/56 28/28/28 27/27/27 56/275/57 
f 80/276/81 18/18/18 17/17/17 81/277/82 
f 60/278/61 127/124/128 126/123/127 61/279/62 
f 10/280/10 132/129/133 131/128/132 6/281/6 
f 3/3/3 55/54/56 59/58/60 4/4/4 
f 87/86/88 60/59/61 63/62/64 88/87/89 
f 18/18/18 64/63/65 68/67/69 19/19/19 
f 28/28/28 69/68/70 73/72/74 29/29/29 
f 5/282/5 13/13/13 12/12/12 1/283/1 
f 84/284/85 137/134/138 136/133/137 85/285/86 
f 13/13/13 74/73/75 78/77/79 14/14/14 
f 79/78/80 101/102/103 100/101/102 80/79/81 
f 4/4/4 79/78/80 83/82/84 5/5/5 
f 9/9/9 92/91/93 91/90/92 10/10/10 
f 97/196/99 23/23/23 22/22/22 98/286/100 
f 8/8/8 84/83/85 88/87/89 9/9/9 
f 62/61/63 89/88/90 92/91/93 63/62/64 
f 23/23/23 93/92/94 96/97/24 24/24/24 
f 58/57/59 97/98/99 101/102/103 59/58/60 
f 134/287/135 111/112/113 110/111/112 135/288/136 
f 15/289/15 72/71/73 71/70/72 11/290/11 
f 124/291/125 115/116/116 114/115/115 125/292/126 
f 120/293/121 119/120/120 118/119/119 121/294/122 
f 42/295/43 95/96/98 26/95/97 40/296/41 
f 107/108/109 128/125/129 127/124/128 108/109/110 
f 116/117/117 133/130/134 132/129/133 117/118/118 
f 102/103/104 138/135/139 137/134/138 103/104/105 
f 112/113/24 141/138/24 140/137/141 113/114/114 
f 14/14/14 102/103/104 106/107/108 15/15/15 
f 19/19/19 107/108/109 111/112/113 20/20/20 
f 24/24/24 112/113/24 115/116/116 25/25/25 
f 29/29/29 116/117/117 119/120/120 30/30/30 
f 41/41/42 120/41/121 123/41/124 42/41/43 
f 67/66/68 124/121/125 128/125/129 68/67/69 
f 72/71/73 129/126/130 133/130/134 73/72/74 
f 77/76/78 134/131/135 138/135/139 78/77/79 
f 95/96/98 139/136/140 141/138/24 96/97/24 
# 115 polygons - 31 triangles

