# 3ds Max Wavefront OBJ Exporter v0.97b - (c)2007 guruware
# 创建的文件:11.06.2023 17:42:57

mtllib 柱子.mtl

#
# object 对象004
#

v  -67.3207 276.9937 -1141.8992
v  -7.4230 276.9937 -1141.7771
v  -7.2402 276.9937 -1231.4711
v  -67.1378 276.9937 -1231.5931
v  -75.2793 270.4671 -1239.7678
v  -75.2793 256.8916 -1239.7678
v  -75.4956 256.8916 -1133.7576
v  -75.4956 270.4671 -1133.7576
v  -75.4956 -0.0019 -1133.7576
v  -75.4956 20.8749 -1133.7576
v  -75.2795 20.8749 -1239.7678
v  -75.2795 -0.0019 -1239.7678
v  0.9346 270.4671 -1239.6125
v  0.9346 256.8916 -1239.6125
v  0.9344 20.8748 -1239.6125
v  0.9344 -0.0020 -1239.6125
v  0.7184 270.4671 -1133.6023
v  0.7184 256.8916 -1133.6023
v  0.7184 20.8748 -1133.6023
v  0.7184 -0.0020 -1133.6023
v  -68.3711 256.8916 -1232.8313
v  -68.5590 256.8916 -1140.6659
v  -6.1899 256.8916 -1140.5388
v  -6.0021 256.8916 -1232.7042
v  -68.5590 20.8749 -1140.6659
v  -68.3712 20.8749 -1232.8313
v  -6.0022 20.8748 -1232.7042
v  -6.1899 20.8748 -1140.5388
v  -67.3207 270.4671 -1141.8992
v  -67.1378 270.4671 -1231.5931
v  -7.2402 270.4671 -1231.4711
v  -7.4230 270.4671 -1141.7771
v  -68.5588 256.8916 -1140.6659
v  -68.3711 256.8917 -1232.8313
v  -6.0022 20.8749 -1232.7042
v  -6.1898 256.8916 -1140.5388
v  -6.1899 20.8749 -1140.5388
# 37 vertices

vn -0.5785 0.5774 0.5762
vn 0.5762 0.5774 0.5785
vn 0.5785 0.5774 -0.5762
vn -0.5762 0.5774 -0.5785
vn -0.5762 -0.5774 -0.5785
vn -0.5785 -0.5774 0.5762
vn -0.7085 0.0000 0.7057
vn -0.7057 0.0000 -0.7085
vn 0.5785 -0.5774 -0.5762
vn 0.7085 0.0000 -0.7057
vn 0.5762 -0.5774 0.5785
vn 0.7057 0.0000 0.7085
vn 0.0000 -1.0000 -0.0000
vn 0.0000 1.0000 -0.0000
vn 0.0000 1.0000 0.0000
vn -0.3021 0.9045 0.3009
vn -0.3009 0.9045 -0.3021
vn 0.3021 0.9045 -0.3009
vn 0.3009 0.9045 0.3021
vn 0.7085 -0.0000 -0.7057
vn 0.7057 -0.0000 0.7085
# 21 vertex normals

vt -0.0497 -16.4700 2.1976
vt -0.0497 -15.7358 2.1976
vt 1.0497 -15.7358 2.1976
vt 1.0497 -16.4700 2.1976
vt 1.1497 2.1177 -16.5700
vt 1.1497 1.9512 -16.5700
vt -0.1497 1.9512 -16.5700
vt -0.1497 2.1177 -16.5700
vt -0.1497 -1.1977 -16.5700
vt -0.1497 -0.9418 -16.5700
vt 1.1497 -0.9418 -16.5700
vt 1.1497 -1.1977 -16.5700
vt -15.6358 2.1177 1.1497
vt -15.6358 1.9512 1.1497
vt -16.5700 1.9512 1.1497
vt -16.5700 2.1177 1.1497
vt -16.5700 -1.1977 1.1497
vt -16.5700 -0.9418 1.1497
vt -15.6358 -0.9418 1.1497
vt -15.6358 -1.1977 1.1497
vt 1.1497 2.1177 -15.6358
vt 1.1497 1.9512 -15.6358
vt -0.1497 1.9512 -15.6358
vt -0.1497 2.1177 -15.6358
vt -0.1497 -1.1977 -15.6358
vt -0.1497 -0.9418 -15.6358
vt 1.1497 -0.9418 -15.6358
vt 1.1497 -1.1977 -15.6358
vt 17.5700 2.1177 -0.1497
vt 17.5700 1.9512 -0.1497
vt 16.6358 1.9512 -0.1497
vt 16.6358 2.1177 -0.1497
vt 16.6358 -1.1977 -0.1497
vt 16.6358 -0.9418 -0.1497
vt 17.5700 -0.9418 -0.1497
vt 17.5700 -1.1977 -0.1497
vt -0.1497 -16.5700 1.9512
vt -0.0649 -16.4851 1.9512
vt 1.0649 -16.4851 1.9512
vt 1.1497 -16.5700 1.9512
vt 1.0649 -15.7206 1.9512
vt 1.1497 -15.6358 1.9512
vt -0.0649 -15.7206 1.9512
vt -0.1497 -15.6358 1.9512
vt -0.1497 -16.5700 -0.9418
vt -0.0649 -16.4851 -0.9418
vt 1.0649 -16.4851 -0.9418
vt 1.1497 -16.5700 -0.9418
vt 1.0649 -15.7206 -0.9418
vt 1.1497 -15.6358 -0.9418
vt -0.0649 -15.7206 -0.9418
vt -0.1497 -15.6358 -0.9418
vt -0.1497 -16.5700 2.1177
vt -0.0497 -16.4700 2.1177
vt 1.0497 -16.4700 2.1177
vt 1.1497 -16.5700 2.1177
vt 1.0497 -15.7358 2.1177
vt 1.1497 -15.6358 2.1177
vt -0.0497 -15.7358 2.1177
vt -0.1497 -15.6358 2.1177
vt -0.0497 2.1177 -16.4700
vt -0.0497 2.1976 -16.4700
vt 1.0497 2.1976 -16.4700
vt 1.0497 2.1177 -16.4700
vt -16.4700 2.1177 1.0497
vt -16.4700 2.1976 1.0497
vt -15.7358 2.1976 1.0497
vt -15.7358 2.1177 1.0497
vt -0.0497 2.1177 -15.7358
vt -0.0497 2.1976 -15.7358
vt 1.0497 2.1976 -15.7358
vt 1.0497 2.1177 -15.7358
vt 16.7358 2.1177 -0.0497
vt 16.7358 2.1976 -0.0497
vt 17.4700 2.1976 -0.0497
vt 17.4700 2.1177 -0.0497
vt -0.0649 -0.9465 -16.4851
vt -0.0649 1.9465 -16.4851
vt 1.0649 1.9465 -16.4851
vt 1.0649 -0.9465 -16.4851
vt -16.4851 -0.9465 1.0649
vt -16.4851 1.9465 1.0649
vt -15.7206 1.9465 1.0649
vt -15.7206 -0.9465 1.0649
vt -0.0649 -0.9465 -15.7206
vt -0.0649 1.9465 -15.7206
vt 1.0649 1.9465 -15.7206
vt 1.0649 -0.9465 -15.7206
vt 16.7206 -0.9465 -0.0649
vt 16.7206 1.9465 -0.0649
vt 17.4851 1.9465 -0.0649
vt 17.4851 -0.9465 -0.0649
# 92 texture coords

o 对象004
g 对象004
usemtl asd234s12
s 4
f 1/1/1 2/2/2 3/3/3 4/4/4 
s 8
f 5/5/4 6/6/5 7/7/6 8/8/1 
f 9/9/7 10/10/1 11/11/4 12/12/8 
s 16
f 13/13/3 14/14/9 6/15/5 5/16/4 
f 12/17/8 11/18/4 15/19/3 16/20/10 
s 32
f 17/21/2 18/22/11 14/23/9 13/24/3 
f 16/25/10 15/26/3 19/27/2 20/28/12 
s 64
f 8/29/1 7/30/6 18/31/11 17/32/2 
f 20/33/12 19/34/2 10/35/1 9/36/7 
s off
f 6/37/5 21/38/13 22/39/13 7/40/6 
f 7/40/6 22/39/13 23/41/13 18/42/11 
f 18/42/11 23/41/13 24/43/13 14/44/9 
f 14/44/9 24/43/13 21/38/13 6/37/5 
f 10/45/1 25/46/14 26/47/15 11/48/4 
f 11/48/4 26/47/15 27/49/15 15/50/3 
f 15/50/3 27/49/15 28/51/14 19/52/2 
f 19/52/2 28/51/14 25/46/14 10/45/1 
f 8/53/1 29/54/16 30/55/17 5/56/4 
f 5/56/4 30/55/17 31/57/18 13/58/3 
f 13/58/3 31/57/18 32/59/19 17/60/2 
f 17/60/2 32/59/19 29/54/16 8/53/1 
f 29/61/16 1/62/1 4/63/4 30/64/17 
f 30/65/17 4/66/4 3/67/3 31/68/18 
f 31/69/18 3/70/3 2/71/2 32/72/19 
f 32/73/19 2/74/2 1/75/1 29/76/16 
usemtl shamoqiang21_
s 8
f 25/77/7 33/78/7 34/79/8 26/80/8 
s 16
f 26/81/8 34/82/8 24/83/20 35/84/20 
s 32
f 35/85/20 24/86/20 36/87/21 37/88/21 
s 64
f 37/89/21 36/90/21 33/91/7 25/92/7 
# 29 polygons

