# 3ds Max Wavefront OBJ Exporter v0.97b - (c)2007 guruware
# 创建的文件:14.06.2023 22:28:37

mtllib 火盆\火盆.mtl

#
# object 对象009
#

v  2045.1659 276.9936 -1429.0417
v  2048.3582 277.2455 -1434.9974
v  2050.3943 277.2455 -1433.3225
v  2051.5371 278.0011 -1440.9282
v  2055.6008 278.0011 -1437.5852
v  2054.6892 279.2605 -1446.8091
v  2060.7637 279.2605 -1441.8121
v  2060.8081 283.2485 -1458.2245
v  2070.7852 283.2485 -1450.0171
v  2066.5627 289.1018 -1468.9608
v  2080.2104 289.1018 -1457.7340
v  2071.8569 296.7222 -1478.8379
v  2088.8813 296.7222 -1464.8331
v  2045.8361 277.2455 -1435.7657
v  2046.5034 278.0011 -1442.4615
v  2047.1650 279.2605 -1449.1011
v  2048.4497 283.2485 -1461.9890
v  2049.6577 289.1018 -1474.1105
v  2050.7690 296.7222 -1485.2616
v  2043.2119 277.2455 -1435.5104
v  2041.2660 278.0011 -1441.9519
v  2039.3365 279.2605 -1448.3391
v  2035.5913 283.2485 -1460.7377
v  2032.0687 289.1018 -1472.3987
v  2028.8281 296.7222 -1483.1263
v  2040.8851 277.2455 -1434.2701
v  2036.6223 278.0011 -1439.4768
v  2032.3955 279.2605 -1444.6394
v  2024.1906 283.2485 -1454.6609
v  2016.4736 289.1018 -1464.0863
v  2009.3744 296.7222 -1472.7572
v  2039.2102 277.2455 -1432.2340
v  2033.2793 278.0011 -1435.4130
v  2027.3986 279.2605 -1438.5651
v  2015.9832 283.2485 -1444.6838
v  2005.2467 289.1018 -1450.4386
v  1995.3696 296.7223 -1455.7328
v  2038.4419 277.2455 -1429.7119
v  2031.7461 278.0011 -1430.3793
v  2025.1066 279.2605 -1431.0409
v  2012.2185 283.2485 -1432.3254
v  2000.0972 289.1018 -1433.5334
v  1988.9459 296.7223 -1434.6449
v  2038.6973 277.2455 -1427.0876
v  2032.2556 278.0011 -1425.1418
v  2025.8684 279.2605 -1423.2124
v  2013.4698 283.2485 -1419.4670
v  2001.8088 289.1018 -1415.9446
v  1991.0813 296.7223 -1412.7040
v  2039.9374 277.2455 -1424.7610
v  2034.7308 278.0011 -1420.4982
v  2029.5681 279.2605 -1416.2714
v  2019.5466 283.2485 -1408.0664
v  2010.1213 289.1018 -1400.3495
v  2001.4504 296.7223 -1393.2504
v  2041.9735 277.2455 -1423.0859
v  2038.7947 278.0011 -1417.1553
v  2035.6425 279.2605 -1411.2744
v  2029.5237 283.2485 -1399.8590
v  2023.7689 289.1018 -1389.1226
v  2018.4749 296.7223 -1379.2456
v  2044.4957 277.2455 -1422.3177
v  2043.8284 278.0011 -1415.6218
v  2043.1666 279.2605 -1408.9824
v  2041.8822 283.2485 -1396.0944
v  2040.6741 289.1018 -1383.9730
v  2039.5627 296.7223 -1372.8218
v  2047.1199 277.2455 -1422.5731
v  2049.0657 278.0011 -1416.1316
v  2050.9951 279.2605 -1409.7443
v  2054.7405 283.2485 -1397.3457
v  2058.2632 289.1018 -1385.6848
v  2061.5037 296.7223 -1374.9570
v  2049.4465 277.2455 -1423.8132
v  2053.7095 278.0011 -1418.6067
v  2057.9363 279.2605 -1413.4440
v  2066.1411 283.2485 -1403.4225
v  2073.8582 289.1018 -1393.9972
v  2080.9573 296.7223 -1385.3262
v  2051.1216 277.2455 -1425.8494
v  2057.0522 278.0011 -1422.6705
v  2062.9331 279.2605 -1419.5183
v  2074.3486 283.2485 -1413.3997
v  2085.0850 289.1018 -1407.6448
v  2094.9622 296.7222 -1402.3507
v  2051.8899 277.2455 -1428.3716
v  2058.5857 278.0011 -1427.7042
v  2065.2251 279.2605 -1427.0425
v  2078.1133 283.2485 -1425.7581
v  2090.2346 289.1018 -1424.5499
v  2101.3857 296.7222 -1423.4386
v  2051.6345 277.2455 -1430.9957
v  2058.0759 278.0011 -1432.9417
v  2064.4634 279.2605 -1434.8711
v  2076.8618 283.2485 -1438.6163
v  2088.5229 289.1018 -1442.1389
v  2099.2505 296.7223 -1445.3795
# 97 vertices

vn -0.0000 -1.0000 0.0000
vn 0.0374 -0.9969 -0.0697
vn 0.0612 -0.9969 -0.0501
vn 0.0724 -0.9882 -0.1350
vn 0.1185 -0.9882 -0.0970
vn 0.1166 -0.9691 -0.2175
vn 0.1910 -0.9691 -0.1564
vn 0.1761 -0.9279 -0.3285
vn 0.2884 -0.9279 -0.2361
vn 0.2391 -0.8625 -0.4460
vn 0.3915 -0.8625 -0.3206
vn 0.2656 -0.8269 -0.4956
vn 0.4351 -0.8269 -0.3562
vn 0.0078 -0.9969 -0.0787
vn 0.0152 -0.9882 -0.1524
vn 0.0245 -0.9691 -0.2456
vn 0.0370 -0.9279 -0.3709
vn 0.0502 -0.8625 -0.5035
vn 0.0558 -0.8269 -0.5595
vn -0.0229 -0.9969 -0.0757
vn -0.0443 -0.9882 -0.1467
vn -0.0714 -0.9691 -0.2363
vn -0.1078 -0.9279 -0.3568
vn -0.1463 -0.8625 -0.4844
vn -0.1626 -0.8269 -0.5383
vn -0.0501 -0.9969 -0.0612
vn -0.0971 -0.9882 -0.1185
vn -0.1564 -0.9691 -0.1910
vn -0.2361 -0.9279 -0.2884
vn -0.3206 -0.8625 -0.3915
vn -0.3562 -0.8269 -0.4351
vn -0.0697 -0.9969 -0.0374
vn -0.1350 -0.9882 -0.0724
vn -0.2175 -0.9691 -0.1166
vn -0.3285 -0.9279 -0.1761
vn -0.4460 -0.8625 -0.2391
vn -0.4956 -0.8269 -0.2656
vn -0.0787 -0.9969 -0.0078
vn -0.1524 -0.9882 -0.0152
vn -0.2456 -0.9691 -0.0245
vn -0.3709 -0.9279 -0.0370
vn -0.5035 -0.8625 -0.0502
vn -0.5595 -0.8269 -0.0558
vn -0.0757 -0.9969 0.0229
vn -0.1467 -0.9882 0.0443
vn -0.2363 -0.9691 0.0714
vn -0.3568 -0.9279 0.1078
vn -0.4844 -0.8625 0.1463
vn -0.5383 -0.8269 0.1626
vn -0.0612 -0.9969 0.0501
vn -0.1185 -0.9882 0.0971
vn -0.1910 -0.9691 0.1564
vn -0.2884 -0.9279 0.2361
vn -0.3915 -0.8625 0.3206
vn -0.4351 -0.8269 0.3562
vn -0.0374 -0.9969 0.0697
vn -0.0724 -0.9882 0.1350
vn -0.1166 -0.9691 0.2175
vn -0.1761 -0.9279 0.3285
vn -0.2391 -0.8625 0.4460
vn -0.2657 -0.8269 0.4956
vn -0.0078 -0.9969 0.0787
vn -0.0152 -0.9882 0.1524
vn -0.0245 -0.9691 0.2456
vn -0.0370 -0.9279 0.3709
vn -0.0502 -0.8625 0.5035
vn -0.0558 -0.8269 0.5595
vn 0.0229 -0.9969 0.0757
vn 0.0443 -0.9882 0.1467
vn 0.0714 -0.9691 0.2363
vn 0.1078 -0.9279 0.3568
vn 0.1463 -0.8625 0.4844
vn 0.1626 -0.8269 0.5383
vn 0.0501 -0.9969 0.0612
vn 0.0971 -0.9882 0.1185
vn 0.1564 -0.9691 0.1910
vn 0.2361 -0.9279 0.2884
vn 0.3206 -0.8625 0.3915
vn 0.3562 -0.8269 0.4351
vn 0.0697 -0.9969 0.0374
vn 0.1350 -0.9882 0.0724
vn 0.2175 -0.9691 0.1166
vn 0.3285 -0.9279 0.1761
vn 0.4460 -0.8625 0.2391
vn 0.4956 -0.8269 0.2656
vn 0.0787 -0.9969 0.0078
vn 0.1524 -0.9882 0.0152
vn 0.2456 -0.9691 0.0245
vn 0.3709 -0.9279 0.0370
vn 0.5035 -0.8625 0.0502
vn 0.5595 -0.8269 0.0558
vn 0.0757 -0.9969 -0.0229
vn 0.1467 -0.9882 -0.0443
vn 0.2363 -0.9691 -0.0714
vn 0.3568 -0.9279 -0.1078
vn 0.4844 -0.8625 -0.1463
vn 0.5383 -0.8269 -0.1626
# 97 vertex normals

vt 0.0000 0.0000 0.0000
vt 0.1110 0.0625 0.0000
vt 0.1110 0.0000 0.0000
vt 0.2221 0.0625 0.0000
vt 0.2221 0.0000 0.0000
vt 0.3335 0.0625 0.0000
vt 0.3335 0.0000 0.0000
vt 0.5559 0.0625 0.0000
vt 0.5559 0.0000 0.0000
vt 0.7776 0.0625 0.0000
vt 0.7776 0.0000 0.0000
vt 1.0000 0.0625 0.0000
vt 1.0000 0.0000 0.0000
vt 0.0000 0.0625 0.0000
vt 0.1110 0.1250 0.0000
vt 0.2221 0.1250 0.0000
vt 0.3335 0.1250 0.0000
vt 0.5559 0.1250 0.0000
vt 0.7776 0.1250 0.0000
vt 1.0000 0.1250 0.0000
vt 0.0000 0.1250 0.0000
vt 0.1110 0.1875 0.0000
vt 0.2221 0.1875 0.0000
vt 0.3335 0.1875 0.0000
vt 0.5559 0.1875 0.0000
vt 0.7776 0.1875 0.0000
vt 1.0000 0.1875 0.0000
vt 0.0000 0.1875 0.0000
vt 0.1110 0.2500 0.0000
vt 0.2221 0.2500 0.0000
vt 0.3335 0.2500 0.0000
vt 0.5559 0.2500 0.0000
vt 0.7776 0.2500 0.0000
vt 1.0000 0.2500 0.0000
vt 0.0000 0.2500 0.0000
vt 0.1110 0.3125 0.0000
vt 0.2221 0.3125 0.0000
vt 0.3335 0.3125 0.0000
vt 0.5559 0.3125 0.0000
vt 0.7776 0.3125 0.0000
vt 1.0000 0.3125 0.0000
vt 0.0000 0.3125 0.0000
vt 0.1110 0.3750 0.0000
vt 0.2221 0.3750 0.0000
vt 0.3335 0.3750 0.0000
vt 0.5559 0.3750 0.0000
vt 0.7776 0.3750 0.0000
vt 1.0000 0.3750 0.0000
vt 0.0000 0.3750 0.0000
vt 0.1110 0.4375 0.0000
vt 0.2221 0.4375 0.0000
vt 0.3335 0.4375 0.0000
vt 0.5559 0.4375 0.0000
vt 0.7776 0.4375 0.0000
vt 1.0000 0.4375 0.0000
vt 0.0000 0.4375 0.0000
vt 0.1110 0.5000 0.0000
vt 0.2221 0.5000 0.0000
vt 0.3335 0.5000 0.0000
vt 0.5559 0.5000 0.0000
vt 0.7776 0.5000 0.0000
vt 1.0000 0.5000 0.0000
vt 0.0000 0.5000 0.0000
vt 0.1110 0.5625 0.0000
vt 0.2221 0.5625 0.0000
vt 0.3335 0.5625 0.0000
vt 0.5559 0.5625 0.0000
vt 0.7776 0.5625 0.0000
vt 1.0000 0.5625 0.0000
vt 0.0000 0.5625 0.0000
vt 0.1110 0.6250 0.0000
vt 0.2221 0.6250 0.0000
vt 0.3335 0.6250 0.0000
vt 0.5559 0.6250 0.0000
vt 0.7776 0.6250 0.0000
vt 1.0000 0.6250 0.0000
vt 0.0000 0.6250 0.0000
vt 0.1110 0.6875 0.0000
vt 0.2221 0.6875 0.0000
vt 0.3335 0.6875 0.0000
vt 0.5559 0.6875 0.0000
vt 0.7776 0.6875 0.0000
vt 1.0000 0.6875 0.0000
vt 0.0000 0.6875 0.0000
vt 0.1110 0.7500 0.0000
vt 0.2221 0.7500 0.0000
vt 0.3335 0.7500 0.0000
vt 0.5559 0.7500 0.0000
vt 0.7776 0.7500 0.0000
vt 1.0000 0.7500 0.0000
vt 0.0000 0.7500 0.0000
vt 0.1110 0.8125 0.0000
vt 0.2221 0.8125 0.0000
vt 0.3335 0.8125 0.0000
vt 0.5559 0.8125 0.0000
vt 0.7776 0.8125 0.0000
vt 1.0000 0.8125 0.0000
vt 0.0000 0.8125 0.0000
vt 0.1110 0.8750 0.0000
vt 0.2221 0.8750 0.0000
vt 0.3335 0.8750 0.0000
vt 0.5559 0.8750 0.0000
vt 0.7776 0.8750 0.0000
vt 1.0000 0.8750 0.0000
vt 0.0000 0.8750 0.0000
vt 0.1110 0.9375 0.0000
vt 0.2221 0.9375 0.0000
vt 0.3335 0.9375 0.0000
vt 0.5559 0.9375 0.0000
vt 0.7776 0.9375 0.0000
vt 1.0000 0.9375 0.0000
vt 0.0000 0.9375 0.0000
vt 0.1110 1.0000 0.0000
vt 0.2221 1.0000 0.0000
vt 0.3335 1.0000 0.0000
vt 0.5559 1.0000 0.0000
vt 0.7776 1.0000 0.0000
vt 1.0000 1.0000 0.0000
# 118 texture coords

o 对象009
g 对象009
usemtl 铁铁_
s 1
f 1/1/1 2/2/2 3/3/3 
s 3
f 3/3/3 2/2/2 4/4/4 5/5/5 
s 2
f 5/5/5 4/4/4 6/6/6 7/7/7 
f 7/7/7 6/6/6 8/8/8 9/9/9 
f 9/9/9 8/8/8 10/10/10 11/11/11 
s 3
f 11/11/11 10/10/10 12/12/12 13/13/13 
s 1
f 1/14/1 14/15/14 2/2/2 
s 3
f 2/2/2 14/15/14 15/16/15 4/4/4 
s 2
f 4/4/4 15/16/15 16/17/16 6/6/6 
f 6/6/6 16/17/16 17/18/17 8/8/8 
f 8/8/8 17/18/17 18/19/18 10/10/10 
s 3
f 10/10/10 18/19/18 19/20/19 12/12/12 
s 1
f 1/21/1 20/22/20 14/15/14 
s 3
f 14/15/14 20/22/20 21/23/21 15/16/15 
s 2
f 15/16/15 21/23/21 22/24/22 16/17/16 
f 16/17/16 22/24/22 23/25/23 17/18/17 
f 17/18/17 23/25/23 24/26/24 18/19/18 
s 3
f 18/19/18 24/26/24 25/27/25 19/20/19 
s 1
f 1/28/1 26/29/26 20/22/20 
s 3
f 20/22/20 26/29/26 27/30/27 21/23/21 
s 2
f 21/23/21 27/30/27 28/31/28 22/24/22 
f 22/24/22 28/31/28 29/32/29 23/25/23 
f 23/25/23 29/32/29 30/33/30 24/26/24 
s 3
f 24/26/24 30/33/30 31/34/31 25/27/25 
s 1
f 1/35/1 32/36/32 26/29/26 
s 3
f 26/29/26 32/36/32 33/37/33 27/30/27 
s 2
f 27/30/27 33/37/33 34/38/34 28/31/28 
f 28/31/28 34/38/34 35/39/35 29/32/29 
f 29/32/29 35/39/35 36/40/36 30/33/30 
s 3
f 30/33/30 36/40/36 37/41/37 31/34/31 
s 1
f 1/42/1 38/43/38 32/36/32 
s 3
f 32/36/32 38/43/38 39/44/39 33/37/33 
s 2
f 33/37/33 39/44/39 40/45/40 34/38/34 
f 34/38/34 40/45/40 41/46/41 35/39/35 
f 35/39/35 41/46/41 42/47/42 36/40/36 
s 3
f 36/40/36 42/47/42 43/48/43 37/41/37 
s 1
f 1/49/1 44/50/44 38/43/38 
s 3
f 38/43/38 44/50/44 45/51/45 39/44/39 
s 2
f 39/44/39 45/51/45 46/52/46 40/45/40 
f 40/45/40 46/52/46 47/53/47 41/46/41 
f 41/46/41 47/53/47 48/54/48 42/47/42 
s 3
f 42/47/42 48/54/48 49/55/49 43/48/43 
s 1
f 1/56/1 50/57/50 44/50/44 
s 3
f 44/50/44 50/57/50 51/58/51 45/51/45 
s 2
f 45/51/45 51/58/51 52/59/52 46/52/46 
f 46/52/46 52/59/52 53/60/53 47/53/47 
f 47/53/47 53/60/53 54/61/54 48/54/48 
s 3
f 48/54/48 54/61/54 55/62/55 49/55/49 
s 1
f 1/63/1 56/64/56 50/57/50 
s 3
f 50/57/50 56/64/56 57/65/57 51/58/51 
s 2
f 51/58/51 57/65/57 58/66/58 52/59/52 
f 52/59/52 58/66/58 59/67/59 53/60/53 
f 53/60/53 59/67/59 60/68/60 54/61/54 
s 3
f 54/61/54 60/68/60 61/69/61 55/62/55 
s 1
f 1/70/1 62/71/62 56/64/56 
s 3
f 56/64/56 62/71/62 63/72/63 57/65/57 
s 2
f 57/65/57 63/72/63 64/73/64 58/66/58 
f 58/66/58 64/73/64 65/74/65 59/67/59 
f 59/67/59 65/74/65 66/75/66 60/68/60 
s 3
f 60/68/60 66/75/66 67/76/67 61/69/61 
s 1
f 1/77/1 68/78/68 62/71/62 
s 3
f 62/71/62 68/78/68 69/79/69 63/72/63 
s 2
f 63/72/63 69/79/69 70/80/70 64/73/64 
f 64/73/64 70/80/70 71/81/71 65/74/65 
f 65/74/65 71/81/71 72/82/72 66/75/66 
s 3
f 66/75/66 72/82/72 73/83/73 67/76/67 
s 1
f 1/84/1 74/85/74 68/78/68 
s 3
f 68/78/68 74/85/74 75/86/75 69/79/69 
s 2
f 69/79/69 75/86/75 76/87/76 70/80/70 
f 70/80/70 76/87/76 77/88/77 71/81/71 
f 71/81/71 77/88/77 78/89/78 72/82/72 
s 3
f 72/82/72 78/89/78 79/90/79 73/83/73 
s 1
f 1/91/1 80/92/80 74/85/74 
s 3
f 74/85/74 80/92/80 81/93/81 75/86/75 
s 2
f 75/86/75 81/93/81 82/94/82 76/87/76 
f 76/87/76 82/94/82 83/95/83 77/88/77 
f 77/88/77 83/95/83 84/96/84 78/89/78 
s 3
f 78/89/78 84/96/84 85/97/85 79/90/79 
s 1
f 1/98/1 86/99/86 80/92/80 
s 3
f 80/92/80 86/99/86 87/100/87 81/93/81 
s 2
f 81/93/81 87/100/87 88/101/88 82/94/82 
f 82/94/82 88/101/88 89/102/89 83/95/83 
f 83/95/83 89/102/89 90/103/90 84/96/84 
s 3
f 84/96/84 90/103/90 91/104/91 85/97/85 
s 1
f 1/105/1 92/106/92 86/99/86 
s 3
f 86/99/86 92/106/92 93/107/93 87/100/87 
s 2
f 87/100/87 93/107/93 94/108/94 88/101/88 
f 88/101/88 94/108/94 95/109/95 89/102/89 
f 89/102/89 95/109/95 96/110/96 90/103/90 
s 3
f 90/103/90 96/110/96 97/111/97 91/104/91 
s 1
f 1/112/1 3/113/3 92/106/92 
s 3
f 92/106/92 3/113/3 5/114/5 93/107/93 
s 2
f 93/107/93 5/114/5 7/115/7 94/108/94 
f 94/108/94 7/115/7 9/116/9 95/109/95 
f 95/109/95 9/116/9 11/117/11 96/110/96 
s 3
f 96/110/96 11/117/11 13/118/13 97/111/97 
# 80 polygons - 16 triangles

